<svg xmlns="http://www.w3.org/2000/svg" width="18.031" height="18.125" viewBox="0 0 18.031 18.125">
  <defs>
    <style>
      .cls-1 {
        fill: #56ccc8;
        fill-rule: evenodd;
      }
    </style>
  </defs>
  <path id="arrow" class="cls-1" d="M554.983,202.926A9.073,9.073,0,1,1,545.967,212a9.056,9.056,0,0,1,9.016-9.073m1.264,9.08-3.436-3.317a0.822,0.822,0,0,1,0-1.2l0.313-.3a0.914,0.914,0,0,1,1.251,0l4.043,3.9a0.153,0.153,0,0,1,.021.014l0.313,0.3a0.829,0.829,0,0,1,0,1.2l-0.313.3a0.239,0.239,0,0,0-.021.013l-4.043,3.867a0.914,0.914,0,0,1-1.251,0l-0.313-.3a0.822,0.822,0,0,1,0-1.2Z" transform="translate(-545.969 -202.938)"/>
</svg>
